<mxfile host="app.diagrams.net" modified="2024-06-12T14:51:35.674Z" agent="Mozilla/5.0 (Windows NT 10.0; Win64; x64) AppleWebKit/537.36 (KHTML, like Gecko) Chrome/125.0.0.0 Safari/537.36" etag="8fwxKFc69rhRuDzY-B8r" version="24.5.3" type="google">
  <diagram name="Page-1" id="9Lwrpb4fF7fJYV08E_gt">
    <mxGraphModel grid="0" page="0" gridSize="10" guides="1" tooltips="1" connect="1" arrows="1" fold="1" pageScale="1" pageWidth="850" pageHeight="1100" math="0" shadow="0">
      <root>
        <mxCell id="0" />
        <mxCell id="1" parent="0" />
        <mxCell id="FvzlB20X-jvDsnAxi1uD-1" value="Reservation" style="swimlane;fontStyle=1;align=center;verticalAlign=top;childLayout=stackLayout;horizontal=1;startSize=26;horizontalStack=0;resizeParent=1;resizeParentMax=0;resizeLast=0;collapsible=1;marginBottom=0;whiteSpace=wrap;html=1;" vertex="1" parent="1">
          <mxGeometry x="-317" y="-137" width="160" height="230" as="geometry">
            <mxRectangle x="-357" y="-64" width="95" height="26" as="alternateBounds" />
          </mxGeometry>
        </mxCell>
        <mxCell id="FvzlB20X-jvDsnAxi1uD-2" value="- date: String&lt;div&gt;- time: String&lt;/div&gt;&lt;div&gt;- student: Student&lt;/div&gt;&lt;div&gt;- tutor : Tutor&lt;/div&gt;" style="text;strokeColor=none;fillColor=none;align=left;verticalAlign=top;spacingLeft=4;spacingRight=4;overflow=hidden;rotatable=0;points=[[0,0.5],[1,0.5]];portConstraint=eastwest;whiteSpace=wrap;html=1;" vertex="1" parent="FvzlB20X-jvDsnAxi1uD-1">
          <mxGeometry y="26" width="160" height="64" as="geometry" />
        </mxCell>
        <mxCell id="FvzlB20X-jvDsnAxi1uD-3" value="" style="line;strokeWidth=1;fillColor=none;align=left;verticalAlign=middle;spacingTop=-1;spacingLeft=3;spacingRight=3;rotatable=0;labelPosition=right;points=[];portConstraint=eastwest;strokeColor=inherit;" vertex="1" parent="FvzlB20X-jvDsnAxi1uD-1">
          <mxGeometry y="90" width="160" height="8" as="geometry" />
        </mxCell>
        <mxCell id="FvzlB20X-jvDsnAxi1uD-4" value="&lt;div&gt;+ Reservation(student: Student, tutor: Tutor, date: String, time: String)&lt;span style=&quot;background-color: initial;&quot;&gt;&lt;br&gt;&lt;/span&gt;&lt;/div&gt;&lt;div&gt;&lt;span style=&quot;background-color: initial;&quot;&gt;+ getDate(): String&lt;/span&gt;&lt;br&gt;&lt;/div&gt;&lt;div&gt;+ getTime(): String&lt;/div&gt;&lt;div&gt;+ getStudent(): Student&lt;/div&gt;&lt;div&gt;+ getTutor(): Tutor&lt;/div&gt;&lt;div&gt;+ toString(): String&lt;/div&gt;" style="text;strokeColor=none;fillColor=none;align=left;verticalAlign=top;spacingLeft=4;spacingRight=4;overflow=hidden;rotatable=0;points=[[0,0.5],[1,0.5]];portConstraint=eastwest;whiteSpace=wrap;html=1;" vertex="1" parent="FvzlB20X-jvDsnAxi1uD-1">
          <mxGeometry y="98" width="160" height="132" as="geometry" />
        </mxCell>
        <mxCell id="zL9nkyC8BAiKEJBfp9le-2" value="&lt;p style=&quot;margin:0px;margin-top:4px;text-align:center;&quot;&gt;&lt;b&gt;Tutors&lt;/b&gt;&lt;/p&gt;&lt;hr size=&quot;1&quot; style=&quot;border-style:solid;&quot;&gt;&lt;p style=&quot;margin:0px;margin-left:4px;&quot;&gt;- ListOfTutor: Tutor[]&lt;/p&gt;&lt;hr size=&quot;1&quot; style=&quot;border-style:solid;&quot;&gt;&lt;p style=&quot;margin:0px;margin-left:4px;&quot;&gt;+ add(Tutor: Object): void&lt;/p&gt;&lt;p style=&quot;margin:0px;margin-left:4px;&quot;&gt;+ remove(Tutor: Object): void&lt;/p&gt;&lt;p style=&quot;margin:0px;margin-left:4px;&quot;&gt;+ print(): void&lt;/p&gt;" style="verticalAlign=top;align=left;overflow=fill;html=1;whiteSpace=wrap;" vertex="1" parent="1">
          <mxGeometry x="-77" y="156" width="158" height="121" as="geometry" />
        </mxCell>
        <mxCell id="0yvCkCHlPhaLkEJ03H6k-12" value="Name" style="swimlane;fontStyle=0;childLayout=stackLayout;horizontal=1;startSize=26;fillColor=none;horizontalStack=0;resizeParent=1;resizeParentMax=0;resizeLast=0;collapsible=1;marginBottom=0;whiteSpace=wrap;html=1;" vertex="1" parent="1">
          <mxGeometry x="4" y="352" width="159" height="132" as="geometry" />
        </mxCell>
        <mxCell id="0yvCkCHlPhaLkEJ03H6k-13" value="+ fname: String&lt;div&gt;+ lname: String&lt;br&gt;&lt;/div&gt;" style="text;strokeColor=none;fillColor=none;align=left;verticalAlign=top;spacingLeft=4;spacingRight=4;overflow=hidden;rotatable=0;points=[[0,0.5],[1,0.5]];portConstraint=eastwest;whiteSpace=wrap;html=1;" vertex="1" parent="0yvCkCHlPhaLkEJ03H6k-12">
          <mxGeometry y="26" width="159" height="41" as="geometry" />
        </mxCell>
        <mxCell id="buH7NvQmNdbYgLshHchf-17" value="&lt;div style=&quot;line-height: 30%;&quot;&gt;&lt;pre style=&quot;line-height: 30%;&quot;&gt;&lt;font style=&quot;font-size: 12px; background-color: rgb(255, 255, 255);&quot; face=&quot;Helvetica&quot;&gt;- getFirstName(): String&lt;/font&gt;&lt;/pre&gt;&lt;pre style=&quot;line-height: 30%;&quot;&gt;&lt;pre style=&quot;line-height: 30%;&quot;&gt;&lt;font face=&quot;Helvetica&quot;&gt;- getFirstName(): String&lt;/font&gt;&lt;/pre&gt;&lt;/pre&gt;&lt;/div&gt;" style="whiteSpace=wrap;html=1;align=left;" vertex="1" parent="0yvCkCHlPhaLkEJ03H6k-12">
          <mxGeometry y="67" width="159" height="65" as="geometry" />
        </mxCell>
        <mxCell id="0yvCkCHlPhaLkEJ03H6k-16" value="Address" style="swimlane;fontStyle=0;childLayout=stackLayout;horizontal=1;startSize=26;fillColor=none;horizontalStack=0;resizeParent=1;resizeParentMax=0;resizeLast=0;collapsible=1;marginBottom=0;whiteSpace=wrap;html=1;" vertex="1" parent="1">
          <mxGeometry x="-228" y="350" width="162" height="96" as="geometry" />
        </mxCell>
        <mxCell id="0yvCkCHlPhaLkEJ03H6k-17" value="- street: String&lt;div&gt;- city: String&lt;br&gt;&lt;/div&gt;&lt;div&gt;- item: attribute&lt;br&gt;&lt;/div&gt;&lt;div&gt;- state: String&lt;br&gt;&lt;/div&gt;" style="text;strokeColor=none;fillColor=none;align=left;verticalAlign=top;spacingLeft=4;spacingRight=4;overflow=hidden;rotatable=0;points=[[0,0.5],[1,0.5]];portConstraint=eastwest;whiteSpace=wrap;html=1;" vertex="1" parent="0yvCkCHlPhaLkEJ03H6k-16">
          <mxGeometry y="26" width="162" height="70" as="geometry" />
        </mxCell>
        <mxCell id="buH7NvQmNdbYgLshHchf-5" value="Student" style="swimlane;fontStyle=1;align=center;verticalAlign=top;childLayout=stackLayout;horizontal=1;startSize=26;horizontalStack=0;resizeParent=1;resizeParentMax=0;resizeLast=0;collapsible=1;marginBottom=0;whiteSpace=wrap;html=1;" vertex="1" parent="1">
          <mxGeometry x="-317" y="144" width="160" height="156" as="geometry" />
        </mxCell>
        <mxCell id="buH7NvQmNdbYgLshHchf-6" value="- email: String&lt;div&gt;- phone: String&lt;/div&gt;&lt;div&gt;- subject: String&lt;/div&gt;&lt;div&gt;- gender: char&lt;br&gt;&lt;div&gt;&lt;br&gt;&lt;/div&gt;&lt;/div&gt;" style="text;strokeColor=none;fillColor=none;align=left;verticalAlign=top;spacingLeft=4;spacingRight=4;overflow=hidden;rotatable=0;points=[[0,0.5],[1,0.5]];portConstraint=eastwest;whiteSpace=wrap;html=1;" vertex="1" parent="buH7NvQmNdbYgLshHchf-5">
          <mxGeometry y="26" width="160" height="70" as="geometry" />
        </mxCell>
        <mxCell id="buH7NvQmNdbYgLshHchf-10" value="&lt;span style=&quot;background-color: rgb(255, 255, 255);&quot;&gt;&lt;font style=&quot;font-size: 12px;&quot;&gt;+&amp;nbsp;getStudentEmail(): String&lt;/font&gt;&lt;/span&gt;&lt;div&gt;&lt;font style=&quot;font-size: 12px;&quot;&gt;&lt;span style=&quot;background-color: rgb(255, 255, 255);&quot;&gt;+&amp;nbsp;&lt;/span&gt;&lt;span style=&quot;background-color: rgb(255, 255, 255);&quot;&gt;&lt;font style=&quot;font-size: 12px;&quot; face=&quot;Helvetica&quot;&gt;getStudentPhone(): String&lt;/font&gt;&lt;/span&gt;&lt;/font&gt;&lt;/div&gt;&lt;div&gt;&lt;font style=&quot;font-size: 12px;&quot;&gt;+ toString(): String&lt;/font&gt;&lt;span style=&quot;font-size: 9.8pt; background-color: rgb(255, 255, 255);&quot;&gt;&lt;font face=&quot;Helvetica&quot;&gt;&lt;br&gt;&lt;/font&gt;&lt;/span&gt;&lt;/div&gt;" style="whiteSpace=wrap;html=1;align=left;" vertex="1" parent="buH7NvQmNdbYgLshHchf-5">
          <mxGeometry y="96" width="160" height="60" as="geometry" />
        </mxCell>
        <mxCell id="buH7NvQmNdbYgLshHchf-12" value="Students" style="swimlane;fontStyle=1;align=center;verticalAlign=top;childLayout=stackLayout;horizontal=1;startSize=26;horizontalStack=0;resizeParent=1;resizeParentMax=0;resizeLast=0;collapsible=1;marginBottom=0;whiteSpace=wrap;html=1;" vertex="1" parent="1">
          <mxGeometry x="-575" y="335" width="252" height="166" as="geometry" />
        </mxCell>
        <mxCell id="QmXwgkQGhu-zgILOF1Ii-25" value="-studentlist: Object[]" style="text;strokeColor=none;fillColor=none;align=left;verticalAlign=top;spacingLeft=4;spacingRight=4;overflow=hidden;rotatable=0;points=[[0,0.5],[1,0.5]];portConstraint=eastwest;whiteSpace=wrap;html=1;" vertex="1" parent="buH7NvQmNdbYgLshHchf-12">
          <mxGeometry y="26" width="252" height="26" as="geometry" />
        </mxCell>
        <mxCell id="buH7NvQmNdbYgLshHchf-14" value="" style="line;strokeWidth=1;fillColor=none;align=left;verticalAlign=middle;spacingTop=-1;spacingLeft=3;spacingRight=3;rotatable=0;labelPosition=right;points=[];portConstraint=eastwest;strokeColor=inherit;" vertex="1" parent="buH7NvQmNdbYgLshHchf-12">
          <mxGeometry y="52" width="252" height="30" as="geometry" />
        </mxCell>
        <mxCell id="QmXwgkQGhu-zgILOF1Ii-26" value="+addstudent(Student : Object): void&lt;div&gt;+removestudent(Student :Object): void&lt;/div&gt;&lt;div&gt;+printstudent(): void&lt;/div&gt;&lt;div&gt;+findstudent(Student : Object): void&lt;/div&gt;" style="text;strokeColor=none;fillColor=none;align=left;verticalAlign=top;spacingLeft=4;spacingRight=4;overflow=hidden;rotatable=0;points=[[0,0.5],[1,0.5]];portConstraint=eastwest;whiteSpace=wrap;html=1;" vertex="1" parent="buH7NvQmNdbYgLshHchf-12">
          <mxGeometry y="82" width="252" height="84" as="geometry" />
        </mxCell>
        <mxCell id="v_yS_KyCs1fkbFJXZNkY-1" value="Tutor" style="swimlane;fontStyle=1;align=center;verticalAlign=top;childLayout=stackLayout;horizontal=1;startSize=26;horizontalStack=0;resizeParent=1;resizeParentMax=0;resizeLast=0;collapsible=1;marginBottom=0;whiteSpace=wrap;html=1;" vertex="1" parent="1">
          <mxGeometry x="-79" y="-140" width="160" height="271" as="geometry" />
        </mxCell>
        <mxCell id="v_yS_KyCs1fkbFJXZNkY-2" value="- phone: String" style="text;strokeColor=none;fillColor=none;align=left;verticalAlign=top;spacingLeft=4;spacingRight=4;overflow=hidden;rotatable=0;points=[[0,0.5],[1,0.5]];portConstraint=eastwest;whiteSpace=wrap;html=1;" vertex="1" parent="v_yS_KyCs1fkbFJXZNkY-1">
          <mxGeometry y="26" width="160" height="21" as="geometry" />
        </mxCell>
        <mxCell id="v_yS_KyCs1fkbFJXZNkY-5" value="- email: String" style="text;strokeColor=none;fillColor=none;align=left;verticalAlign=top;spacingLeft=4;spacingRight=4;overflow=hidden;rotatable=0;points=[[0,0.5],[1,0.5]];portConstraint=eastwest;whiteSpace=wrap;html=1;" vertex="1" parent="v_yS_KyCs1fkbFJXZNkY-1">
          <mxGeometry y="47" width="160" height="19" as="geometry" />
        </mxCell>
        <mxCell id="v_yS_KyCs1fkbFJXZNkY-6" value="- id: String" style="text;strokeColor=none;fillColor=none;align=left;verticalAlign=top;spacingLeft=4;spacingRight=4;overflow=hidden;rotatable=0;points=[[0,0.5],[1,0.5]];portConstraint=eastwest;whiteSpace=wrap;html=1;" vertex="1" parent="v_yS_KyCs1fkbFJXZNkY-1">
          <mxGeometry y="66" width="160" height="20" as="geometry" />
        </mxCell>
        <mxCell id="v_yS_KyCs1fkbFJXZNkY-7" value="- subject: String" style="text;strokeColor=none;fillColor=none;align=left;verticalAlign=top;spacingLeft=4;spacingRight=4;overflow=hidden;rotatable=0;points=[[0,0.5],[1,0.5]];portConstraint=eastwest;whiteSpace=wrap;html=1;" vertex="1" parent="v_yS_KyCs1fkbFJXZNkY-1">
          <mxGeometry y="86" width="160" height="21" as="geometry" />
        </mxCell>
        <mxCell id="v_yS_KyCs1fkbFJXZNkY-3" value="" style="line;strokeWidth=1;fillColor=none;align=left;verticalAlign=middle;spacingTop=-1;spacingLeft=3;spacingRight=3;rotatable=0;labelPosition=right;points=[];portConstraint=eastwest;strokeColor=inherit;" vertex="1" parent="v_yS_KyCs1fkbFJXZNkY-1">
          <mxGeometry y="107" width="160" height="8" as="geometry" />
        </mxCell>
        <mxCell id="v_yS_KyCs1fkbFJXZNkY-4" value="+ getTutorEmail(): String" style="text;strokeColor=none;fillColor=none;align=left;verticalAlign=top;spacingLeft=4;spacingRight=4;overflow=hidden;rotatable=0;points=[[0,0.5],[1,0.5]];portConstraint=eastwest;whiteSpace=wrap;html=1;" vertex="1" parent="v_yS_KyCs1fkbFJXZNkY-1">
          <mxGeometry y="115" width="160" height="26" as="geometry" />
        </mxCell>
        <mxCell id="v_yS_KyCs1fkbFJXZNkY-10" value="+ getTutorId(): String" style="text;strokeColor=none;fillColor=none;align=left;verticalAlign=top;spacingLeft=4;spacingRight=4;overflow=hidden;rotatable=0;points=[[0,0.5],[1,0.5]];portConstraint=eastwest;whiteSpace=wrap;html=1;" vertex="1" parent="v_yS_KyCs1fkbFJXZNkY-1">
          <mxGeometry y="141" width="160" height="26" as="geometry" />
        </mxCell>
        <mxCell id="v_yS_KyCs1fkbFJXZNkY-12" value="+ getTutorPhone(): String" style="text;strokeColor=none;fillColor=none;align=left;verticalAlign=top;spacingLeft=4;spacingRight=4;overflow=hidden;rotatable=0;points=[[0,0.5],[1,0.5]];portConstraint=eastwest;whiteSpace=wrap;html=1;" vertex="1" parent="v_yS_KyCs1fkbFJXZNkY-1">
          <mxGeometry y="167" width="160" height="26" as="geometry" />
        </mxCell>
        <mxCell id="v_yS_KyCs1fkbFJXZNkY-11" value="+ getTutorSubject(): String" style="text;strokeColor=none;fillColor=none;align=left;verticalAlign=top;spacingLeft=4;spacingRight=4;overflow=hidden;rotatable=0;points=[[0,0.5],[1,0.5]];portConstraint=eastwest;whiteSpace=wrap;html=1;" vertex="1" parent="v_yS_KyCs1fkbFJXZNkY-1">
          <mxGeometry y="193" width="160" height="26" as="geometry" />
        </mxCell>
        <mxCell id="v_yS_KyCs1fkbFJXZNkY-9" value="+ printTutors(): void" style="text;strokeColor=none;fillColor=none;align=left;verticalAlign=top;spacingLeft=4;spacingRight=4;overflow=hidden;rotatable=0;points=[[0,0.5],[1,0.5]];portConstraint=eastwest;whiteSpace=wrap;html=1;" vertex="1" parent="v_yS_KyCs1fkbFJXZNkY-1">
          <mxGeometry y="219" width="160" height="26" as="geometry" />
        </mxCell>
        <mxCell id="v_yS_KyCs1fkbFJXZNkY-8" value="+ toString(): String" style="text;strokeColor=none;fillColor=none;align=left;verticalAlign=top;spacingLeft=4;spacingRight=4;overflow=hidden;rotatable=0;points=[[0,0.5],[1,0.5]];portConstraint=eastwest;whiteSpace=wrap;html=1;" vertex="1" parent="v_yS_KyCs1fkbFJXZNkY-1">
          <mxGeometry y="245" width="160" height="26" as="geometry" />
        </mxCell>
        <mxCell id="pZ15M4nVVDkBGaBIenCK-1" value="ReservationList" style="swimlane;fontStyle=1;align=center;verticalAlign=top;childLayout=stackLayout;horizontal=1;startSize=26;horizontalStack=0;resizeParent=1;resizeParentMax=0;resizeLast=0;collapsible=1;marginBottom=0;whiteSpace=wrap;html=1;" vertex="1" parent="1">
          <mxGeometry x="-566" y="2" width="185" height="219" as="geometry" />
        </mxCell>
        <mxCell id="pZ15M4nVVDkBGaBIenCK-2" value="- reservations: List &amp;lt;Reservation&amp;gt;" style="text;strokeColor=none;fillColor=none;align=left;verticalAlign=top;spacingLeft=4;spacingRight=4;overflow=hidden;rotatable=0;points=[[0,0.5],[1,0.5]];portConstraint=eastwest;whiteSpace=wrap;html=1;" vertex="1" parent="pZ15M4nVVDkBGaBIenCK-1">
          <mxGeometry y="26" width="185" height="40" as="geometry" />
        </mxCell>
        <mxCell id="pZ15M4nVVDkBGaBIenCK-3" value="" style="line;strokeWidth=1;fillColor=none;align=left;verticalAlign=middle;spacingTop=-1;spacingLeft=3;spacingRight=3;rotatable=0;labelPosition=right;points=[];portConstraint=eastwest;strokeColor=inherit;" vertex="1" parent="pZ15M4nVVDkBGaBIenCK-1">
          <mxGeometry y="66" width="185" height="8" as="geometry" />
        </mxCell>
        <mxCell id="pZ15M4nVVDkBGaBIenCK-4" value="&lt;div&gt;+ ReservationList(list: List&amp;lt;Reservation&amp;gt;&lt;/div&gt;+ addReservation(reservation: Reservation): void&lt;div&gt;+ removeReservation(email: String): void&lt;/div&gt;&lt;div&gt;+ printReservation():void&lt;/div&gt;&lt;div&gt;+ findReservation(email:String): void&lt;/div&gt;" style="text;strokeColor=none;fillColor=none;align=left;verticalAlign=top;spacingLeft=4;spacingRight=4;overflow=hidden;rotatable=0;points=[[0,0.5],[1,0.5]];portConstraint=eastwest;whiteSpace=wrap;html=1;" vertex="1" parent="pZ15M4nVVDkBGaBIenCK-1">
          <mxGeometry y="74" width="185" height="145" as="geometry" />
        </mxCell>
        <mxCell id="pZ15M4nVVDkBGaBIenCK-6" value="" style="endArrow=diamondThin;endFill=0;endSize=24;html=1;rounded=0;fontSize=12;curved=1;entryX=-0.014;entryY=-0.223;entryDx=0;entryDy=0;entryPerimeter=0;exitX=1.019;exitY=0.259;exitDx=0;exitDy=0;exitPerimeter=0;" edge="1" parent="1">
          <mxGeometry width="160" relative="1" as="geometry">
            <mxPoint x="-157.00000000000003" y="-4.732000000000012" as="sourcePoint" />
            <mxPoint x="-79.28000000000002" y="-4.718000000000002" as="targetPoint" />
          </mxGeometry>
        </mxCell>
        <mxCell id="pZ15M4nVVDkBGaBIenCK-7" value="" style="endArrow=diamondThin;endFill=0;endSize=24;html=1;rounded=0;fontSize=12;curved=1;exitX=0.446;exitY=1.006;exitDx=0;exitDy=0;exitPerimeter=0;entryX=0.441;entryY=-0.005;entryDx=0;entryDy=0;entryPerimeter=0;" edge="1" parent="1">
          <mxGeometry width="160" relative="1" as="geometry">
            <mxPoint x="-236.6000000000001" y="94.57199999999992" as="sourcePoint" />
            <mxPoint x="-237.39999999999984" y="144.00000000000003" as="targetPoint" />
          </mxGeometry>
        </mxCell>
        <mxCell id="LprNwKiOY_9LrTHZtk3s-3" value="" style="endArrow=diamondThin;endFill=0;endSize=24;html=1;rounded=0;exitX=0.5;exitY=0;exitDx=0;exitDy=0;entryX=1;entryY=0.5;entryDx=0;entryDy=0;" edge="1" parent="1" source="0yvCkCHlPhaLkEJ03H6k-12" target="v_yS_KyCs1fkbFJXZNkY-4">
          <mxGeometry width="160" relative="1" as="geometry">
            <mxPoint x="-286" y="219" as="sourcePoint" />
            <mxPoint x="190" y="94" as="targetPoint" />
            <Array as="points">
              <mxPoint x="81" y="311" />
              <mxPoint x="149" y="311" />
              <mxPoint x="146" y="-12" />
            </Array>
          </mxGeometry>
        </mxCell>
        <mxCell id="LprNwKiOY_9LrTHZtk3s-4" value="" style="endArrow=diamondThin;endFill=0;endSize=24;html=1;rounded=0;entryX=1.01;entryY=0.421;entryDx=0;entryDy=0;entryPerimeter=0;" edge="1" parent="1" target="buH7NvQmNdbYgLshHchf-10">
          <mxGeometry width="160" relative="1" as="geometry">
            <mxPoint x="82" y="310" as="sourcePoint" />
            <mxPoint x="-121" y="292" as="targetPoint" />
            <Array as="points">
              <mxPoint x="-108" y="308" />
              <mxPoint x="-108" y="267" />
            </Array>
          </mxGeometry>
        </mxCell>
        <mxCell id="LprNwKiOY_9LrTHZtk3s-5" value="" style="endArrow=diamondThin;endFill=0;endSize=24;html=1;rounded=0;exitX=0.5;exitY=0;exitDx=0;exitDy=0;entryX=0.5;entryY=1;entryDx=0;entryDy=0;" edge="1" parent="1" source="0yvCkCHlPhaLkEJ03H6k-16" target="buH7NvQmNdbYgLshHchf-5">
          <mxGeometry width="160" relative="1" as="geometry">
            <mxPoint x="-286" y="218" as="sourcePoint" />
            <mxPoint x="-126" y="218" as="targetPoint" />
            <Array as="points">
              <mxPoint x="-147" y="332" />
              <mxPoint x="-235" y="332" />
            </Array>
          </mxGeometry>
        </mxCell>
        <mxCell id="LprNwKiOY_9LrTHZtk3s-6" value="" style="endArrow=diamondThin;endFill=0;endSize=24;html=1;rounded=0;entryX=0;entryY=0.5;entryDx=0;entryDy=0;" edge="1" parent="1" target="v_yS_KyCs1fkbFJXZNkY-11">
          <mxGeometry width="160" relative="1" as="geometry">
            <mxPoint x="-147" y="333" as="sourcePoint" />
            <mxPoint x="-126" y="149" as="targetPoint" />
            <Array as="points">
              <mxPoint x="-124" y="333" />
              <mxPoint x="-124" y="66" />
            </Array>
          </mxGeometry>
        </mxCell>
        <mxCell id="LprNwKiOY_9LrTHZtk3s-7" value="" style="endArrow=diamondThin;endFill=0;endSize=24;html=1;rounded=0;exitX=0;exitY=0.5;exitDx=0;exitDy=0;entryX=0.5;entryY=0;entryDx=0;entryDy=0;" edge="1" parent="1" source="buH7NvQmNdbYgLshHchf-6" target="buH7NvQmNdbYgLshHchf-12">
          <mxGeometry width="160" relative="1" as="geometry">
            <mxPoint x="-286" y="218" as="sourcePoint" />
            <mxPoint x="-126" y="218" as="targetPoint" />
            <Array as="points">
              <mxPoint x="-347" y="205" />
              <mxPoint x="-347" y="296" />
              <mxPoint x="-449" y="296" />
            </Array>
          </mxGeometry>
        </mxCell>
        <mxCell id="LprNwKiOY_9LrTHZtk3s-8" value="" style="endArrow=diamondThin;endFill=0;endSize=24;html=1;rounded=0;exitX=1.004;exitY=0.283;exitDx=0;exitDy=0;exitPerimeter=0;entryX=0;entryY=0.5;entryDx=0;entryDy=0;" edge="1" parent="1" source="pZ15M4nVVDkBGaBIenCK-4" target="FvzlB20X-jvDsnAxi1uD-2">
          <mxGeometry width="160" relative="1" as="geometry">
            <mxPoint x="-286" y="80" as="sourcePoint" />
            <mxPoint x="-126" y="80" as="targetPoint" />
            <Array as="points">
              <mxPoint x="-367" y="117" />
              <mxPoint x="-367" y="-79" />
            </Array>
          </mxGeometry>
        </mxCell>
        <mxCell id="LprNwKiOY_9LrTHZtk3s-10" value="" style="endArrow=diamondThin;endFill=0;endSize=24;html=1;rounded=0;exitX=1.01;exitY=0.267;exitDx=0;exitDy=0;exitPerimeter=0;entryX=1;entryY=0.5;entryDx=0;entryDy=0;" edge="1" parent="1" source="v_yS_KyCs1fkbFJXZNkY-9" target="zL9nkyC8BAiKEJBfp9le-2">
          <mxGeometry width="160" relative="1" as="geometry">
            <mxPoint x="-286" y="80" as="sourcePoint" />
            <mxPoint x="-126" y="80" as="targetPoint" />
            <Array as="points">
              <mxPoint x="124" y="86" />
              <mxPoint x="127" y="215" />
            </Array>
          </mxGeometry>
        </mxCell>
      </root>
    </mxGraphModel>
  </diagram>
</mxfile>
